<svg width="15" height="15" viewBox="0 0 15 15" fill="none" xmlns="http://www.w3.org/2000/svg">
<path fill-rule="evenodd" clip-rule="evenodd" d="M7.30247 3.41854C7.48553 3.23549 7.78233 3.23549 7.96538 3.41854L11.7154 7.16854C11.7603 7.21349 11.7942 7.26528 11.8171 7.32057C11.8397 7.37502 11.8523 7.43466 11.8527 7.49719C11.8527 7.49813 11.8527 7.49906 11.8527 7.5C11.8527 7.50094 11.8527 7.50188 11.8527 7.50281C11.8523 7.56535 11.8397 7.62498 11.8171 7.67943C11.7942 7.73472 11.7603 7.78651 11.7154 7.83146L7.96538 11.5815C7.78233 11.7645 7.48553 11.7645 7.30247 11.5815C7.11941 11.3984 7.11941 11.1016 7.30247 10.9185L10.2523 7.96875H2.8125C2.55362 7.96875 2.34375 7.75888 2.34375 7.5C2.34375 7.24112 2.55362 7.03125 2.8125 7.03125H10.2523L7.30247 4.08146C7.11941 3.8984 7.11941 3.6016 7.30247 3.41854Z" fill="#092C4F"/>
</svg>
