<svg width="20" height="21" viewBox="0 0 20 21" fill="none" xmlns="http://www.w3.org/2000/svg">
<path fill-rule="evenodd" clip-rule="evenodd" d="M1.66671 2.16666C1.20647 2.16666 0.833374 2.53976 0.833374 3C0.833374 3.46023 1.20647 3.83333 1.66671 3.83333H2.68335L3.35346 6.51624L4.74789 13.4901C4.86122 14.057 5.16753 14.5671 5.61468 14.9336C6.06177 15.3 6.62233 15.5001 7.20038 15.5H15.1584C15.7784 15.5 16.3762 15.2696 16.8359 14.8536C17.2955 14.4376 17.5842 13.8656 17.6459 13.2487L18.1459 8.24875C18.1807 7.90121 18.1422 7.55024 18.033 7.21847C17.9238 6.8867 17.7463 6.58149 17.512 6.32252C17.2776 6.06354 16.9916 5.85655 16.6723 5.71488C16.3531 5.57321 16.0077 5.50001 15.6584 5.5H4.8175L4.30006 3.42833C4.20978 3.06792 4.00165 2.74801 3.70874 2.51942C3.41583 2.29083 3.05492 2.16667 2.68337 2.16666H1.66671ZM6.66671 17.1667C6.20647 17.1667 5.83337 17.5398 5.83337 18C5.83337 18.4602 6.20647 18.8333 6.66671 18.8333H8.33337C8.79361 18.8333 9.16671 18.4602 9.16671 18C9.16671 17.5398 8.79361 17.1667 8.33337 17.1667H6.66671ZM13.3334 17.1667C12.8731 17.1667 12.5 17.5398 12.5 18C12.5 18.4602 12.8731 18.8333 13.3334 18.8333H15C15.4603 18.8333 15.8334 18.4602 15.8334 18C15.8334 17.5398 15.4603 17.1667 15 17.1667H13.3334ZM6.38221 13.1633L5.18317 7.16666H15.6584C15.7748 7.16667 15.8899 7.19107 15.9963 7.23829C16.1027 7.28551 16.1981 7.35451 16.2762 7.44084C16.3543 7.52716 16.4135 7.6289 16.4499 7.73949C16.4863 7.85008 16.4991 7.96707 16.4875 8.08291L15.9875 13.0829C15.967 13.2885 15.8707 13.4792 15.7175 13.6179C15.5643 13.7565 15.365 13.8333 15.1584 13.8333H7.19972C7.007 13.8334 6.82021 13.7667 6.67115 13.6445C6.5221 13.5224 6.41998 13.3523 6.38221 13.1633Z" fill="#092C4F"/>
</svg>
