<svg width="50" height="50" viewBox="0 0 50 50" fill="none" xmlns="http://www.w3.org/2000/svg">
<path fill-rule="evenodd" clip-rule="evenodd" d="M22.9166 6.5105C20.3278 6.5105 18.2291 8.60916 18.2291 11.198V13.2813C18.2291 14.1443 17.5296 14.8438 16.6666 14.8438C15.8037 14.8438 15.1041 14.1443 15.1041 13.2813V11.198C15.1041 6.88327 18.6019 3.3855 22.9166 3.3855H27.0833C31.398 3.3855 34.8958 6.88327 34.8958 11.198V13.2813C34.8958 14.1443 34.1962 14.8438 33.3333 14.8438C32.4703 14.8438 31.7708 14.1443 31.7708 13.2813V11.198C31.7708 8.60916 29.6721 6.5105 27.0833 6.5105H22.9166Z" fill="#1D1D1D"/>
<path d="M12.5 13.2813H37.5C42.1023 13.2813 45.8333 17.0123 45.8333 21.6147C45.8333 21.6147 40.8791 26.4629 28.3036 26.9352C28.1976 26.9392 28.105 26.8593 28.089 26.7545C27.86 25.2542 26.5642 24.1049 25 24.1049C23.48 24.1049 22.2135 25.1901 21.9329 26.6279C21.9127 26.7316 21.8174 26.8075 21.7121 26.7998C9.11255 25.874 4.16663 21.6147 4.16663 21.6147C4.16663 17.0123 7.89759 13.2813 12.5 13.2813Z" fill="#1D1D1D"/>
<path d="M21.875 29.5028C21.875 29.3978 21.7917 29.3105 21.687 29.3029C11.7902 28.5819 6.26615 25.9849 4.16663 24.7659V38.2814C4.16663 42.8837 7.89759 46.6147 12.5 46.6147H37.5C42.1023 46.6147 45.8333 42.8837 45.8333 38.2814V24.8529C43.7286 26.2321 38.1899 29.1256 28.3198 29.5181C28.2122 29.5223 28.125 29.6107 28.125 29.7183V30.1466C28.125 31.8725 26.7259 33.2716 25 33.2716C23.2741 33.2716 21.875 31.8725 21.875 30.1466V29.5028Z" fill="#1D1D1D"/>
<path d="M23.4375 27.2813C23.4375 26.4529 24.109 25.7813 24.9375 25.7813H25.0625C25.8909 25.7813 26.5625 26.4529 26.5625 27.2813V30.1022C26.5625 30.9306 25.8909 31.6022 25.0625 31.6022H24.9375C24.109 31.6022 23.4375 30.9306 23.4375 30.1022V27.2813Z" fill="#1D1D1D"/>
</svg>
