<svg width="50" height="50" viewBox="0 0 50 50" fill="none" xmlns="http://www.w3.org/2000/svg">
<path d="M27.9327 5.24686C26.2428 3.80671 23.7572 3.80671 22.0673 5.24685L20.5771 6.5168C19.8529 7.13394 18.9525 7.50689 18.0041 7.58258L16.0524 7.73833C13.8391 7.91495 12.0815 9.67248 11.9049 11.8858L11.7492 13.8375C11.6735 14.7859 11.3005 15.6863 10.6834 16.4105L9.41345 17.9007C7.97331 19.5907 7.97331 22.0762 9.41345 23.7661L10.6834 25.2563C11.3005 25.9805 11.6735 26.8809 11.7492 27.8293L11.9049 29.7811C12.0815 31.9943 13.8391 33.7519 16.0524 33.9285L18.0041 34.0842C18.9525 34.1599 19.8529 34.5329 20.5771 35.15L22.0673 36.42C23.7572 37.8601 26.2428 37.8601 27.9327 36.42L29.4229 35.15C30.1471 34.5329 31.0475 34.1599 31.9959 34.0842L33.9476 33.9285C36.1609 33.7519 37.9185 31.9943 38.0951 29.7811L38.2508 27.8293C38.3265 26.8809 38.6995 25.9805 39.3166 25.2563L40.5866 23.7661C42.0267 22.0762 42.0267 19.5907 40.5866 17.9007L39.3166 16.4105C38.6995 15.6863 38.3265 14.7859 38.2508 13.8375L38.0951 11.8858C37.9185 9.67249 36.1609 7.91495 33.9477 7.73833L31.9959 7.58258C31.0475 7.50689 30.1471 7.13394 29.4229 6.5168L27.9327 5.24686Z" fill="#E0EEFB"/>
<path d="M14.5833 42.7586V36.849C14.9788 36.9462 15.3865 37.0127 15.8038 37.046L17.7555 37.2017C18.0484 37.2251 18.3265 37.3403 18.5502 37.5309L20.0404 38.8008C22.8983 41.2363 27.1017 41.2363 29.9596 38.8008L31.4498 37.5309C31.6735 37.3403 31.9516 37.2251 32.2445 37.2017L34.1962 37.046C34.6135 37.0127 35.0212 36.9462 35.4167 36.849V42.7586C35.4167 44.2325 33.9281 45.2404 32.5596 44.693L25.7737 41.9786C25.2771 41.7799 24.723 41.7799 24.2263 41.9786L17.4404 44.693C16.0719 45.2404 14.5833 44.2325 14.5833 42.7586Z" fill="#E0EEFB"/>
</svg>
