<svg width="20" height="20" viewBox="0 0 20 20" fill="none" xmlns="http://www.w3.org/2000/svg">
<path d="M11.6982 13.355C12.6029 13.1473 13.4636 12.7913 14.2489 12.2983C14.8391 11.903 14.999 11.1061 14.6032 10.5137C14.2244 9.94628 13.4663 9.77467 12.8797 10.1232C11.0729 11.2522 8.77611 11.2522 6.96922 10.1232C6.37152 9.74439 5.57726 9.92396 5.19845 10.5211C5.19845 10.5238 5.19845 10.5238 5.19845 10.5238C4.81965 11.1247 4.99922 11.9184 5.6001 12.2945L5.60223 12.2972C6.38587 12.7902 7.24655 13.1467 8.14814 13.3518L5.69361 15.8058C5.19261 16.2988 5.18517 17.1005 5.67448 17.6021L5.69626 17.6239C5.94012 17.8751 6.26952 18 6.59891 18C6.92831 18 7.25717 17.8751 7.5005 17.6239L9.92475 15.2134L12.3346 17.627C12.8468 18.1164 13.6602 18.1052 14.1532 17.5936C14.634 17.0958 14.634 16.3063 14.1532 15.8085L11.6982 13.355ZM9.92422 9.77467C12.3485 9.77202 14.31 7.80946 14.3126 5.3884C14.3126 2.97 12.3426 1 9.92422 1C7.50581 1 5.53582 2.97 5.53582 5.3884C5.53847 7.81264 7.50316 9.77467 9.92422 9.77733V9.77467ZM9.92422 3.57354C10.9257 3.57354 11.7391 4.38693 11.7391 5.3884C11.7391 6.39306 10.9257 7.20379 9.92422 7.20698C8.92275 7.20433 8.10935 6.39306 8.1067 5.3884C8.10935 4.38693 8.92275 3.57354 9.92422 3.57088V3.57354Z" fill="#E0EEFB"/>
</svg>
