<svg width="20" height="21" viewBox="0 0 20 21" fill="none" xmlns="http://www.w3.org/2000/svg">
<g clip-path="url(#clip0_4265_3138)">
<path fill-rule="evenodd" clip-rule="evenodd" d="M4.81436 5.31455C5.07471 5.0542 5.49682 5.0542 5.75716 5.31455L9.9998 9.55719L14.2424 5.31455C14.5028 5.0542 14.9249 5.0542 15.1853 5.31455C15.4456 5.5749 15.4456 5.99701 15.1853 6.25736L10.9426 10.5L15.1853 14.7426C15.4456 15.003 15.4456 15.4251 15.1853 15.6854C14.9249 15.9458 14.5028 15.9458 14.2424 15.6854L9.9998 11.4428L5.75716 15.6854C5.49682 15.9458 5.07471 15.9458 4.81436 15.6854C4.55401 15.4251 4.55401 15.003 4.81436 14.7426L9.057 10.5L4.81436 6.25736C4.55401 5.99701 4.55401 5.5749 4.81436 5.31455Z" fill="#C0C0C0"/>
</g>
<defs>
<clipPath id="clip0_4265_3138">
<rect width="20" height="20" fill="white" transform="translate(0 0.5)"/>
</clipPath>
</defs>
</svg>
