<svg width="20" height="20" viewBox="0 0 20 20" fill="none" xmlns="http://www.w3.org/2000/svg">
<path fill-rule="evenodd" clip-rule="evenodd" d="M9.99825 1.75C10.4125 1.75 10.7482 2.08579 10.7482 2.5V3.6261L14.9983 5.04276L17.2611 4.28849C17.654 4.1575 18.0788 4.36987 18.2098 4.76283C18.3407 5.15579 18.1284 5.58053 17.7354 5.71151L15.9469 6.30768L18.1977 13.06C18.3177 13.3662 18.2249 13.7266 17.949 13.9334C17.0978 14.5716 16.0626 14.9166 14.9987 14.9166C13.9348 14.9166 12.8996 14.5716 12.0484 13.9334C11.79 13.7397 11.6846 13.4025 11.7867 13.0962L14.0496 6.30768L10.7482 5.20724V16.75H12.4983C12.9125 16.75 13.2482 17.0858 13.2482 17.5C13.2482 17.9142 12.9125 18.25 12.4983 18.25H7.49825C7.08404 18.25 6.74825 17.9142 6.74825 17.5C6.74825 17.0858 7.08404 16.75 7.49825 16.75H9.24825V5.20724L5.94693 6.30768L8.19772 13.06C8.31768 13.3662 8.22486 13.7266 7.94898 13.9334C7.09776 14.5716 6.06255 14.9166 4.99867 14.9166C3.93478 14.9166 2.89958 14.5716 2.04836 13.9334C1.79002 13.7397 1.68464 13.4025 1.78674 13.0962L4.04957 6.30768L2.26108 5.71151C1.86812 5.58053 1.65575 5.15579 1.78674 4.76283C1.91772 4.36987 2.34246 4.1575 2.73542 4.28849L4.99825 5.04276L9.24825 3.6261V2.5C9.24825 2.08579 9.58404 1.75 9.99825 1.75ZM4.99825 8.20504L3.39436 13.0167C3.886 13.278 4.43657 13.4166 4.99867 13.4166C5.56049 13.4166 6.11081 13.2781 6.60227 13.0171L4.99825 8.20504ZM14.9983 8.20504L13.3944 13.0167C13.886 13.278 14.4366 13.4166 14.9987 13.4166C15.5605 13.4166 16.1108 13.2781 16.6023 13.0171L14.9983 8.20504Z" fill="#1D1D1D"/>
</svg>
