<svg width="21" height="21" viewBox="0 0 21 21" fill="none" xmlns="http://www.w3.org/2000/svg">
<path d="M19.6667 5.91634C19.6667 4.70077 19.1838 3.53498 18.3242 2.67544C17.4647 1.81589 16.2989 1.33301 15.0833 1.33301C13.8677 1.33301 12.702 1.81589 11.8424 2.67544C10.9829 3.53498 10.5 4.70077 10.5 5.91634C10.5 7.13192 10.9829 8.29771 11.8424 9.15725C12.702 10.0168 13.8677 10.4997 15.0833 10.4997C16.2989 10.4997 17.4647 10.0168 18.3242 9.15725C19.1838 8.29771 19.6667 7.13192 19.6667 5.91634ZM15.5 6.33301L15.5008 8.41967C15.5008 8.53018 15.4569 8.63616 15.3788 8.7143C15.3006 8.79244 15.1947 8.83634 15.0842 8.83634C14.9736 8.83634 14.8677 8.79244 14.7895 8.7143C14.7114 8.63616 14.6675 8.53018 14.6675 8.41967V6.33301H12.58C12.4695 6.33301 12.3635 6.28911 12.2854 6.21097C12.2072 6.13283 12.1633 6.02685 12.1633 5.91634C12.1633 5.80583 12.2072 5.69985 12.2854 5.62171C12.3635 5.54357 12.4695 5.49967 12.58 5.49967H14.6667V3.41634C14.6667 3.30583 14.7106 3.19985 14.7887 3.12171C14.8668 3.04357 14.9728 2.99967 15.0833 2.99967C15.1938 2.99967 15.2998 3.04357 15.378 3.12171C15.4561 3.19985 15.5 3.30583 15.5 3.41634V5.49967H17.5808C17.6913 5.49967 17.7973 5.54357 17.8755 5.62171C17.9536 5.69985 17.9975 5.80583 17.9975 5.91634C17.9975 6.02685 17.9536 6.13283 17.8755 6.21097C17.7973 6.28911 17.6913 6.33301 17.5808 6.33301H15.5ZM17.5833 14.458V10.723C18.0405 10.4844 18.4614 10.1819 18.8333 9.82467V14.458C18.8334 15.1498 18.5687 15.8154 18.0936 16.3182C17.6185 16.821 16.969 17.123 16.2783 17.1622L16.125 17.1663H4.87499C4.18321 17.1664 3.51763 16.9017 3.0148 16.4266C2.51196 15.9515 2.20999 15.302 2.17082 14.6113L2.16666 14.458V6.54134C2.16661 5.84956 2.43128 5.18398 2.90638 4.68115C3.38148 4.17831 4.03098 3.87634 4.72166 3.83717L4.87499 3.83301H10.0817C9.91436 4.23393 9.79627 4.65366 9.72999 5.08301H4.87499C4.509 5.08302 4.15639 5.22065 3.88716 5.46857C3.61794 5.7165 3.45177 6.05659 3.42166 6.42134L3.41666 6.54134V6.89884L10.5 10.6263L11.5875 10.0538C11.9533 10.363 12.36 10.6247 12.7992 10.8288L10.7908 11.8863C10.7142 11.9266 10.63 11.9505 10.5437 11.9565C10.2892 12.3002 10.3706 11.9506 10.2892 11.9213L10.2092 11.8863L3.41666 8.31134V14.458C3.41667 14.824 3.5543 15.1766 3.80222 15.4458C4.05015 15.7151 4.39024 15.8812 4.75499 15.9113L4.87499 15.9163H16.125C16.4911 15.9163 16.8438 15.7786 17.1131 15.5305C17.3823 15.2824 17.5484 14.9421 17.5783 14.5772L17.5833 14.458Z" fill="#1976D2"/>
</svg>
