<svg width="20" height="20" viewBox="0 0 20 20" fill="none" xmlns="http://www.w3.org/2000/svg">
<path fill-rule="evenodd" clip-rule="evenodd" d="M1.17004 5C1.17004 4.5416 1.54165 4.17 2.00004 4.17H18C18.4584 4.17 18.83 4.5416 18.83 5C18.83 5.45839 18.4584 5.83 18 5.83H2.00004C1.54165 5.83 1.17004 5.45839 1.17004 5ZM1.17004 10C1.17004 9.5416 1.54165 9.17 2.00004 9.17H18C18.4584 9.17 18.83 9.5416 18.83 10C18.83 10.4584 18.4584 10.83 18 10.83H2.00004C1.54165 10.83 1.17004 10.4584 1.17004 10ZM1.17004 15C1.17004 14.5416 1.54165 14.17 2.00004 14.17H12.6667C13.1251 14.17 13.4967 14.5416 13.4967 15C13.4967 15.4584 13.1251 15.83 12.6667 15.83H2.00004C1.54165 15.83 1.17004 15.4584 1.17004 15Z" fill="#092C4F"/>
</svg>
