<svg width="50" height="50" viewBox="0 0 50 50" fill="none" xmlns="http://www.w3.org/2000/svg">
<path d="M25 22.9167C28.4518 22.9167 31.25 20.1185 31.25 16.6667C31.25 13.215 28.4518 10.4167 25 10.4167C21.5482 10.4167 18.75 13.215 18.75 16.6667C18.75 20.1185 21.5482 22.9167 25 22.9167Z" fill="#092C4F"/>
<path d="M25 39.5834C31.9036 39.5834 37.5 36.7852 37.5 33.3334C37.5 29.8816 31.9036 27.0834 25 27.0834C18.0965 27.0834 12.5 29.8816 12.5 33.3334C12.5 36.7852 18.0965 39.5834 25 39.5834Z" fill="#092C4F"/>
<path d="M13.2951 27.1241C8.15 27.4414 4.16669 29.6346 4.16669 32.293C4.16669 34.4846 6.87396 36.3601 10.7076 37.1289C9.85092 35.9689 9.37502 34.6851 9.37502 33.3347C9.37502 30.9525 10.8558 28.7779 13.2951 27.1241Z" fill="#092C4F"/>
<path d="M40.6267 33.3347C40.6267 34.6851 40.1508 35.9689 39.2941 37.1289C43.1277 36.3601 45.835 34.4846 45.835 32.293C45.835 29.6346 41.8517 27.4414 36.7066 27.1241C39.1459 28.7779 40.6267 30.9525 40.6267 33.3347Z" fill="#092C4F"/>
<path d="M32.7474 21.9488C33.775 20.4447 34.376 18.6259 34.376 16.6667C34.376 16.0166 34.3098 15.382 34.1838 14.7691C34.5737 14.6484 34.9881 14.5834 35.4176 14.5834C37.7188 14.5834 39.5843 16.4489 39.5843 18.7501C39.5843 21.0513 37.7188 22.9167 35.4176 22.9167C34.4016 22.9167 33.4705 22.5531 32.7474 21.9488Z" fill="#092C4F"/>
<path d="M14.5834 14.5834C15.0129 14.5834 15.4273 14.6484 15.8172 14.7691C15.6912 15.382 15.625 16.0166 15.625 16.6667C15.625 18.6259 16.226 20.4447 17.2536 21.9488C16.5305 22.5531 15.5994 22.9167 14.5834 22.9167C12.2822 22.9167 10.4167 21.0513 10.4167 18.7501C10.4167 16.4489 12.2822 14.5834 14.5834 14.5834Z" fill="#092C4F"/>
</svg>
