<svg width="15" height="15" viewBox="0 0 15 15" fill="none" xmlns="http://www.w3.org/2000/svg">
<path fill-rule="evenodd" clip-rule="evenodd" d="M4.06185 1.56293L6.56173 4.06281C6.73402 4.2351 6.73402 4.51444 6.56173 4.68673C6.38944 4.85902 6.1101 4.85902 5.93781 4.68673L4.19095 2.93986V13.1248C4.19095 13.3684 3.99343 13.5659 3.74977 13.5659C3.50612 13.5659 3.30859 13.3684 3.30859 13.1248V2.93986L1.56173 4.68673C1.38944 4.85902 1.1101 4.85902 0.937811 4.68673C0.765521 4.51444 0.765521 4.2351 0.937811 4.06281L3.43769 1.56293C3.43773 1.56289 3.43777 1.56285 3.43781 1.56281C3.43844 1.56219 3.43906 1.56157 3.43969 1.56095C3.48155 1.51957 3.52963 1.48828 3.5809 1.46707C3.63291 1.4455 3.68995 1.43359 3.74977 1.43359C3.86186 1.43359 3.97395 1.47604 4.05985 1.56095C4.06048 1.56157 4.06111 1.56219 4.06173 1.56281C4.06177 1.56285 4.06181 1.56289 4.06185 1.56293ZM11.2498 1.43359C11.4934 1.43359 11.6909 1.63112 11.6909 1.87477V12.0597L13.4378 10.3128C13.6101 10.1405 13.8894 10.1405 14.0617 10.3128C14.234 10.4851 14.234 10.7644 14.0617 10.9367L11.5617 13.4367C11.5194 13.479 11.4707 13.5109 11.4186 13.5325C11.3666 13.554 11.3096 13.5659 11.2498 13.5659C11.19 13.5659 11.1329 13.554 11.0809 13.5325C11.0289 13.5109 10.9801 13.479 10.9378 13.4367L8.43781 10.9367C8.26552 10.7644 8.26552 10.4851 8.43781 10.3128C8.6101 10.1405 8.88944 10.1405 9.06173 10.3128L10.8086 12.0597V1.87477C10.8086 1.63112 11.0061 1.43359 11.2498 1.43359Z" fill="#1D1D1D"/>
</svg>
