<svg width="20" height="20" viewBox="0 0 20 20" fill="none" xmlns="http://www.w3.org/2000/svg">
<path fill-rule="evenodd" clip-rule="evenodd" d="M14.6223 17.3344C14.8638 17.5054 15.175 17.5481 15.4525 17.4431C15.7301 17.3374 15.9341 17.1004 15.9956 16.8131C16.6473 13.7501 18.2283 5.99736 18.8216 3.21111C18.8666 3.00111 18.7916 2.78286 18.6266 2.64261C18.4616 2.50236 18.2328 2.46186 18.0288 2.53761C14.8841 3.70161 5.19929 7.33537 1.24078 8.80012C0.989533 8.89312 0.826033 9.13462 0.834283 9.39937C0.843283 9.66487 1.02178 9.89512 1.27903 9.97237C3.05429 10.5034 5.38454 11.2421 5.38454 11.2421C5.38454 11.2421 6.47354 14.5309 7.04129 16.2034C7.11254 16.4134 7.27679 16.5784 7.49354 16.6354C7.70954 16.6916 7.94054 16.6324 8.10179 16.4801C9.01379 15.6191 10.4238 14.2879 10.4238 14.2879C10.4238 14.2879 13.1028 16.2521 14.6223 17.3344ZM6.36479 10.8266L7.62404 14.9801L7.90379 12.3499C7.90379 12.3499 12.769 7.96162 15.5426 5.46036C15.6236 5.38686 15.6348 5.26386 15.5673 5.17761C15.5006 5.09136 15.3776 5.07111 15.2853 5.12961C12.0708 7.18237 6.36479 10.8266 6.36479 10.8266Z" fill="#E0EEFB"/>
</svg>
