<svg width="20" height="20" viewBox="0 0 20 20" fill="none" xmlns="http://www.w3.org/2000/svg">
<g clip-path="url(#clip0_4347_47)">
<path fill-rule="evenodd" clip-rule="evenodd" d="M19.5417 4.95406C19.68 4.49906 19.5417 4.16406 18.8792 4.16406H16.6917C16.135 4.16406 15.8783 4.45323 15.7392 4.7724C15.7392 4.7724 14.6267 7.43573 13.0508 9.16573C12.5408 9.6674 12.3092 9.82656 12.0308 9.82656C11.8917 9.82656 11.6825 9.6674 11.6825 9.21156V4.95406C11.6825 4.4074 11.5292 4.16406 11.0658 4.16406H7.62583C7.27833 4.16406 7.06917 4.4174 7.06917 4.65823C7.06917 5.17573 7.8575 5.29573 7.93833 6.7524V9.9174C7.93833 10.6116 7.81083 10.7374 7.5325 10.7374C6.79083 10.7374 4.98667 8.06156 3.91583 4.9999C3.70833 4.40406 3.49833 4.16406 2.93917 4.16406H0.75C0.125 4.16406 0 4.45323 0 4.7724C0 5.34073 0.741667 8.16406 3.45417 11.8982C5.2625 14.4482 7.80833 15.8307 10.1275 15.8307C11.5183 15.8307 11.69 15.5241 11.69 14.9949V13.0674C11.69 12.4532 11.8217 12.3307 12.2625 12.3307C12.5875 12.3307 13.1433 12.4907 14.4417 13.7199C15.925 15.1774 16.1692 15.8307 17.0042 15.8307H19.1917C19.8167 15.8307 20.13 15.5241 19.95 14.9174C19.7517 14.3141 19.0433 13.4382 18.1042 12.3991C17.5942 11.8074 16.8292 11.1699 16.5967 10.8507C16.2725 10.4416 16.365 10.2591 16.5967 9.8949C16.5967 9.8949 19.2633 6.20656 19.5408 4.95406H19.5417Z" fill="#E0EEFB"/>
</g>
<defs>
<clipPath id="clip0_4347_47">
<rect width="20" height="20" fill="white"/>
</clipPath>
</defs>
</svg>
