<svg width="20" height="20" viewBox="0 0 20 20" fill="none" xmlns="http://www.w3.org/2000/svg">
<g clip-path="url(#clip0_4347_450)">
<path d="M19.5838 5.42533C19.4706 5.02136 19.25 4.65562 18.9455 4.367C18.6324 4.0695 18.2487 3.85669 17.8305 3.74866C16.2655 3.33616 9.99551 3.33616 9.99551 3.33616C7.38162 3.30642 4.76837 3.43723 2.17051 3.72783C1.75234 3.84384 1.36932 4.0614 1.05551 4.36116C0.747181 4.65783 0.523848 5.02366 0.407181 5.4245C0.126925 6.93428 -0.00924233 8.46728 0.000514319 10.0028C-0.00948568 11.537 0.126348 13.0695 0.407181 14.5812C0.521348 14.9803 0.743848 15.3445 1.05301 15.6387C1.36218 15.9328 1.74718 16.1453 2.17051 16.2578C3.75635 16.6695 9.99551 16.6695 9.99551 16.6695C12.6127 16.6993 15.2293 16.5685 17.8305 16.2778C18.2487 16.1698 18.6324 15.957 18.9455 15.6595C19.2499 15.3709 19.4702 15.0051 19.583 14.6012C19.8706 13.092 20.0104 11.5583 20.0005 10.022C20.0221 8.47917 19.8825 6.9383 19.5838 5.4245V5.42533ZM8.00218 12.8562V7.15033L13.2188 10.0037L8.00218 12.8562Z" fill="#E0EEFB"/>
</g>
<defs>
<clipPath id="clip0_4347_450">
<rect width="20" height="20" fill="white"/>
</clipPath>
</defs>
</svg>
